<?xml version="1.0" standalone="no"?>
<!DOCTYPE svg PUBLIC "-//W3C//DTD SVG 1.1//EN" "http://www.w3.org/Graphics/SVG/1.1/DTD/svg11.dtd" >
<svg xmlns="http://www.w3.org/2000/svg">
<metadata>Generated by IcoMoon</metadata>
<defs>
<font id="icomoon" horiz-adv-x="1024">
<font-face units-per-em="1024" ascent="960" descent="-64" />
<missing-glyph horiz-adv-x="1024" />
<glyph unicode="&#x20;" horiz-adv-x="512" d="" />
<glyph unicode="&#xe900;" glyph-name="iconfinder_social_media_social_media_logo_codeigniter_1916035" d="M719.787 590.933l-4.267 2.56c-3.306 2.209-7.373 3.525-11.746 3.525-11.782 0-21.333-9.551-21.333-21.333 0-1.093 0.082-2.167 0.241-3.216l-0.015 0.118c0.208-1.304 0.326-2.808 0.326-4.339 0-7.544-2.88-14.416-7.6-19.576l0.020 0.022c-8.936-9.371-21.478-15.236-35.39-15.36h-0.023c-23.104 1.11-41.557 19.563-42.663 42.564l-0.004 0.102c-0.094 2.239-0.148 4.866-0.148 7.505 0 21.744 3.647 42.636 10.363 62.099l-0.401-1.337c7.408 21.6 11.684 46.486 11.684 72.372 0 3.058-0.060 6.102-0.178 9.131l0.014-0.436c0 85.333-10.24 131.413-113.493 228.693-3.849 3.793-9.137 6.136-14.972 6.136-11.782 0-21.333-9.551-21.333-21.333 0-1.569 0.169-3.098 0.491-4.57l-0.026 0.141c24.747-122.027-49.92-187.733-144.64-267.52-26.027-23.893-56.32-48.213-83.627-75.947-128.853-128.427-155.733-241.493-155.733-313.6 0-128 47.36-289.707 272.64-341.333h5.12c0.163-0.004 0.355-0.007 0.547-0.007 11.782 0 21.333 9.551 21.333 21.333 0 8.075-4.486 15.102-11.102 18.725l-0.111 0.056c-80.64 74.667-96.427 112.213-96.427 151.893 4.519 43.040 23.033 81.076 50.839 110.15l-0.066-0.070c-0.040-0.992-0.063-2.158-0.063-3.328 0-17.256 4.949-33.356 13.505-46.959l-0.215 0.367c19.080-23.811 48.159-38.928 80.768-38.928 1.606 0 3.203 0.037 4.791 0.109l-0.225-0.008c50.347 0 85.333 42.667 85.333 106.667-4.081 33.595-20.91 62.632-45.424 82.593l-0.229 0.181c-20.444 16.268-34.804 39.418-39.581 65.898l-0.099 0.662c0.098 17.901 3.855 34.9 10.56 50.32l-0.32-0.827c10.856-18.308 25.176-33.445 42.174-44.914l0.492-0.313c10.667-7.68 26.453-17.92 44.8-29.44 70.827-42.667 202.24-128 202.24-209.067 0-105.813-38.827-138.24-119.040-195.84-5.545-3.906-9.124-10.282-9.124-17.494 0-11.782 9.551-21.333 21.333-21.333 0.058 0 0.115 0 0.173 0.001h4.684c154.88 34.133 315.307 170.667 315.307 341.333s-148.907 266.667-220.16 313.173z" />
<glyph unicode="&#xe901;" d="M439.498 447.496l0.002 0.010-6.502-23.038 6.5 23.028z" />
<glyph unicode="&#xe902;" d="M472.93 397.482v0z" />
<glyph unicode="&#xe903;" d="M471.088 363.078h0.006l-42.914-0.156 42.908 0.156z" />
<glyph unicode="&#xe904;" d="M480.084 397.44v0z" />
<glyph unicode="&#xe905;" d="M474.85 366.002v0z" />
<glyph unicode="&#xe906;" d="M632.854 497.296v0z" />
<glyph unicode="&#xe907;" d="M597.058 497.296v0z" />
<glyph unicode="&#xe908;" d="M630.468 500.242h-29.78c-1.652 0-3.292-1.326-3.642-2.94l-21.146-97.822c-0.348-1.614-1.986-2.938-3.64-2.938h-21.076c-20.852 0-18.442 14.426-14.168 34.186 0.042 0.198 0.084 0.392 0.124 0.596l0.468 2.492c0.032 0.16 0.062 0.32 0.088 0.466l0.954 5.072 1.020 5.434c0.31 1.638 0.78 4.034 1.090 5.54l4.802 23.482 4.812 23.482c0.332 1.62-0.752 2.95-2.408 2.95h-30.564c-1.648 0-3.288-1.33-3.624-2.946l-13.146-62.354c-0.006-0.016-0.010-0.036-0.010-0.048l-0.61-2.898c-7.572-34.558-5.564-67.516 35.578-68.546 0.674-0.020 1.194-0.026 1.194-0.026h64.578c1.654 0 3.288 1.328 3.632 2.944l13.93 65.462 13.924 65.468c0.346 1.618-0.724 2.944-2.38 2.944v0z" />
<glyph unicode="&#xe909;" d="M749.266 396.204c1.652 0 2.736-1.324 2.404-2.944l-2.894-14.132z" />
<glyph unicode="&#xe90a;" d="M745.89 364.986l2.888 14.14-2.892-14.144c0 0.004 0.004 0.004 0.004 0.004v0z" />
<glyph unicode="&#xe90b;" d="M742.264 362.014c0.006 0 0.012 0.004 0.016 0.004-8.766-0.070-35.102-0.272-54.894-0.272 24.088 0 54.878 0.264 54.878 0.264v0.004z" />
<glyph unicode="&#xe90c;" d="M669.622 414.406c-0.024 1.548 1.738 4.216 3.39 4.216l-3.718 0.060c-1.674-16.854 0.328-4.276 0.328-4.276v0z" />
<glyph unicode="&#xe90d;" d="M690.1 361.754c-0.19 0-0.384 0-0.574-0.004 0.188 0.004 0.384 0.004 0.574 0.004z" />
<glyph unicode="&#xe90e;" d="M749.266 396.204c1.652 0 2.736-1.324 2.404-2.944l-2.894-14.132-0.47-2.304z" />
<glyph unicode="&#xe90f;" d="M704.198 361.784v0z" />
<glyph unicode="&#xe910;" d="M696.886 361.762v0z" />
<glyph unicode="&#xe911;" d="M694.656 361.758c-0.236 0-0.466 0-0.702-0.004 0.236 0.004 0.466 0.004 0.702 0.004z" />
<glyph unicode="&#xe912;" d="M692.388 361.754v0z" />
<glyph unicode="&#xe913;" d="M696.458 361.762c-0.604 0-1.208-0.004-1.802-0.004 0.596 0 1.2 0.004 1.802 0.004z" />
<glyph unicode="&#xe914;" d="M704.080 361.784c-2.408-0.008-4.812-0.018-7.186-0.022 2.374 0.004 4.78 0.014 7.186 0.022z" />
<glyph unicode="&#xe915;" d="M742.286 362.018v0c-6.424-0.050-22.284-0.17-38.1-0.23 15.808 0.056 31.672 0.178 38.1 0.23z" />
<glyph unicode="&#xe916;" d="M745.89 364.978l2.42 11.844-2.424-11.85c0 0.004 0.004 0.004 0.004 0.010v-0.004z" />
<glyph unicode="&#xe917;" d="M693.958 361.754v0z" />
<glyph unicode="&#xe918;" d="M689.518 361.75v0z" />
<glyph unicode="&#xe919;" d="M691.768 361.754v0z" />
<glyph unicode="&#xe91a;" d="M256.166 414.052l4.624 20.506-5.288-23.44-0.626-2.946c0.344 1.62 0.926 4.266 1.29 5.88v0z" />
<glyph unicode="&#xe91b;" d="M311.53 500.586h-32.704c-1.654 0-3.304-1.322-3.674-2.93l-6.202-27.378c-0.364-1.61 0.69-2.93 2.344-2.93h32.956c1.652 0 3.296 1.322 3.65 2.936l2.998 13.688 2.998 13.676v0.004c0.352 1.612-0.712 2.934-2.366 2.934v0z" />
<glyph unicode="&#xe91c;" d="M304.414 455.056v0.004l-9.59-44.374 9.59 44.37z" />
<glyph unicode="&#xe91d;" d="M209.412 308.032c0 0 16.486-0.21 26.964-0.21-7.958 0-21.108 0.144-26.978 0.212 0.006 0 0.010-0.002 0.014-0.002v0z" />
<glyph unicode="&#xe91e;" d="M265.416 455.062v0z" />
<glyph unicode="&#xe91f;" d="M302.048 457.998h-32.96c-1.652 0-3.304-1.322-3.668-2.936l-4.63-20.506-4.624-20.506c-0.364-1.612-0.948-4.258-1.292-5.876l-8.894-41.862c-0.346-1.612-1.056-4.222-1.584-5.79 0 0-6.158-18.322-16.51-18.114-0.44 0.010-0.868 0.014-1.292 0.024-5.014 0.098-8.958 0.168-8.958 0.168h-0.008c-1.648 0.024-3.31-1.266-3.694-2.87l-3.42-14.374-3.414-14.362c-0.384-1.606 0.654-2.932 2.294-2.958 5.872-0.068 19.020-0.216 26.978-0.216 25.858 0 39.49 14.326 48.226 55.548l19.816 91.69c0.352 1.618-0.716 2.938-2.366 2.94v0z" />
<glyph unicode="&#xe920;" d="M770.268 363.424c-1.654 0-2.728 1.326-2.378 2.946l24.794 116.138z" />
<glyph unicode="&#xe921;" d="M804.724 366.374v0z" />
<glyph unicode="&#xe922;" d="M768.248 364.896c-0.2 0.808-0.084 2.792 0.268 4.412l-0.628-2.942c-0.348-1.618 0.724-2.944 2.376-2.944h3.012c-1.656 0.002-4.824 0.664-5.028 1.474v0z" />
<glyph unicode="&#xe923;" d="M802.768 364.086c-0.902-0.364-2.992-0.662-4.648-0.662h3.012c1.652 0 3.276 1.326 3.6 2.95l0.602 2.946c-0.332-1.62-1.666-4.868-2.566-5.234v0z" />
<glyph unicode="&#xe924;" d="M809.748 391.158l4.428 21.876c-0.004-0.014-0.004-0.032-0.008-0.042l-4.42-21.834z" />
<glyph unicode="&#xe925;" d="M907.58 474.728l1.366-5.644c0.376-1.616-0.668-2.926-2.316-2.93z" />
<glyph unicode="&#xe926;" d="M805.326 369.316v0z" />
<glyph unicode="&#xe927;" d="M906.222 480.508v0z" />
<glyph unicode="&#xe928;" d="M814.168 413.036c0.328 1.618 0.876 4.244 1.216 5.844l4.728 22.15-5.354-25.088-0.59-2.906z" />
<glyph unicode="&#xe929;" d="M793.092 484.412c-0.33-1.562-0.75-3.538-1.034-4.844l1.034 4.844z" />
<glyph unicode="&#xe92a;" d="M908.938 469.084l-1.368 5.644-1.352 5.78-0.686 2.926c-2.674 10.4-10.534 16.404-27.598 16.404l-78.566 0.056c-1.65 0-3.286-1.32-3.624-2.94v0l-1.22-5.752-1.436-6.794-0.4-1.904-24.166-113.198c-0.35-1.622-0.464-3.604-0.266-4.412 0.2-0.81 3.372-1.472 5.028-1.472h24.832c1.656 0 3.75 0.298 4.648 0.662 0.9 0.364 2.234 3.614 2.564 5.232l4.416 21.84 4.418 21.834c0.002 0.008 0.004 0.028 0.008 0.042l0.59 2.906 10.084 47.246c0.35 1.61 1.976 2.926 3.628 2.93l78.148 0.040c1.65 0.006 2.694 1.316 2.318 2.93v0z" />
<glyph unicode="&#xe92b;" d="M1009.544 520.112c-1.658-0.012-4.362-0.022-6.018-0.022h-25.012c-1.658 0-3.776-1.118-4.708-2.482l-55.312-81.036c-0.934-1.368-2.002-1.162-2.37 0.448l-4.068 17.852c-0.366 1.614-2.024 2.93-3.674 2.93h-35.56c-1.656 0-2.634-1.298-2.182-2.888l15.932-55.818c0.456-1.59 0.49-4.206 0.080-5.806l-6.946-27.016c-0.412-1.602 0.606-2.914 2.262-2.914h35.142c1.65 0 3.342 1.312 3.75 2.914l6.952 27.016c0.408 1.602 1.56 3.996 2.554 5.318l89.794 119.18c0.998 1.322 0.458 2.394-1.194 2.384l-9.422-0.060z" />
<glyph unicode="&#xe92c;" d="M727.042 450.206v0.034c-0.208-1.794-1.864-3.11-3.518-3.11h-45.082c-1.558 0-2.35 1.060-2.122 2.368 0.014 0.038 0.018 0.072 0.042 0.104 0 0-0.016-0.004-0.030-0.012 0.010 0.052 0.010 0.098 0.026 0.15 0 0 0.084 0.318 0.206 0.768 4.304 11.448 13.076 18.96 29.56 18.96 18.558-0.004 22.176-9.070 20.918-19.262v0zM713.814 502.24c-57.866 0-71.58-35.124-79.274-70.574-7.692-36.132-7.028-69.916 52.852-69.916h2.124c0.192 0.004 0.382 0.004 0.572 0.004h3.862c0.236 0.004 0.468 0.004 0.702 0.004 0.6 0 1.202 0.004 1.804 0.004h0.426c2.37 0.004 4.776 0.014 7.182 0.022h0.122c15.816 0.062 31.676 0.184 38.104 0.234 1.638 0.024 3.246 1.348 3.586 2.954l2.424 11.848 0.47 2.308 2.892 14.13c0.334 1.622-0.75 2.946-2.404 2.946h-53.834c-21.41 0-27.77 5.69-25.428 22.416l86.048-0.008c0.024 0 0.042 0.008 0.062 0.008 1.366 0.026 2.632 0.968 3.13 2.222 0.094 0.242 0.176 0.492 0.208 0.75l-0.010-0.008c12.776 48.196 9.114 80.654-45.626 80.654l0.006 0.002z" />
<glyph unicode="&#xe92d;" d="M440.312 450.388l-0.814-2.882c0-0.010-0.002-0.010-0.002-0.010l-12.994-46.054c-0.45-1.59-2.17-2.89-3.826-2.89h-34.394c-26.086 0-32.44 20.402-26.086 50.5 6.35 30.782 18.804 49.918 44.48 51.858 35.090 2.644 42.108-22.034 33.636-50.522v0zM463.898 400.322c0 0 16.216 39.374 19.9 62.116 5.022 30.444-10.22 74.592-69.094 74.592-58.54 0-83.958-42.152-93.658-87.976-9.698-46.154 3.010-86.632 61.214-86.302l88.834 0.326c1.654 0.016 3.344 1.324 3.764 2.922l7.476 28.516c0.416 1.602-0.594 2.918-2.246 2.926l-14.328 0.084c-1.408 0.012-2.21 0.918-2.042 2.126 0.032 0.218 0.080 0.442 0.18 0.67v0z" />
<glyph unicode="&#xe92e;" d="M753.686 426.676c0-1.090-0.882-1.974-1.974-1.974-1.090 0-1.972 0.884-1.972 1.974 0 1.088 0.882 1.968 1.972 1.968s1.974-0.88 1.974-1.968z" />
<glyph unicode="&#xe92f;" d="M16.906 477.868c-16.164-23.232-14.15-53.456-1.804-78.142 0.294-0.592 0.602-1.174 0.906-1.758 0.194-0.368 0.376-0.746 0.578-1.11 0.114-0.218 0.242-0.432 0.36-0.64 0.21-0.394 0.426-0.768 0.644-1.152 0.384-0.676 0.778-1.348 1.178-2.020 0.222-0.37 0.442-0.738 0.672-1.108 0.446-0.718 0.902-1.432 1.368-2.14 0.194-0.302 0.384-0.606 0.584-0.898 0.644-0.96 1.302-1.92 1.98-2.862 0.018-0.024 0.038-0.048 0.056-0.072 0.108-0.152 0.226-0.3 0.334-0.452 0.586-0.81 1.194-1.61 1.804-2.402 0.226-0.288 0.454-0.576 0.68-0.866 0.546-0.688 1.102-1.37 1.668-2.050 0.212-0.254 0.424-0.51 0.638-0.76 0.758-0.892 1.534-1.784 2.326-2.656 0.014-0.016 0.032-0.034 0.046-0.048 0.032-0.038 0.060-0.060 0.088-0.096 0.772-0.844 1.562-1.67 2.364-2.494 0.248-0.254 0.502-0.51 0.756-0.764 0.62-0.624 1.25-1.234 1.886-1.85 0.258-0.244 0.514-0.496 0.772-0.732 0.85-0.8 1.708-1.586 2.584-2.352 0.016-0.016 0.026-0.028 0.042-0.034 0.148-0.132 0.302-0.26 0.45-0.382 0.772-0.67 1.558-1.334 2.348-1.986 0.322-0.26 0.648-0.518 0.972-0.776 0.646-0.518 1.3-1.028 1.958-1.53 0.348-0.266 0.696-0.532 1.046-0.796 0.726-0.532 1.458-1.060 2.196-1.574 0.27-0.196 0.53-0.382 0.8-0.568 0.074-0.052 0.142-0.108 0.218-0.158 0.702-0.48 1.416-0.948 2.132-1.41 0.308-0.206 0.614-0.416 0.924-0.616 1.098-0.694 2.212-1.38 3.34-2.046 0.306-0.174 0.616-0.346 0.922-0.52 0.828-0.478 1.662-0.948 2.506-1.406 0.456-0.246 0.926-0.478 1.386-0.712 0.598-0.314 1.19-0.63 1.794-0.932 0.138-0.070 0.28-0.136 0.416-0.202 0.242-0.118 0.488-0.232 0.734-0.356 0.94-0.45 1.886-0.888 2.842-1.316 0.204-0.090 0.4-0.18 0.602-0.268 1.094-0.478 2.2-0.942 3.316-1.38 0.268-0.108 0.538-0.21 0.808-0.318 1.032-0.396 2.078-0.79 3.128-1.158 0.134-0.046 0.262-0.090 0.394-0.134 1.154-0.404 2.318-0.778 3.49-1.142 0.28-0.082 0.56-0.172 0.842-0.254 1.194-0.36 2.372-0.788 3.604-1.016 78.168-14.254 100.874 46.974 100.874 46.974-19.070-24.844-52.92-31.398-84.992-24.102-1.216 0.274-2.394 0.652-3.58 1.004-0.302 0.090-0.596 0.18-0.894 0.272-1.158 0.356-2.304 0.728-3.446 1.122-0.156 0.054-0.314 0.114-0.474 0.17-1.022 0.36-2.032 0.738-3.040 1.126-0.284 0.114-0.568 0.22-0.852 0.334-1.104 0.436-2.2 0.89-3.282 1.366-0.224 0.094-0.436 0.194-0.656 0.292-0.93 0.42-1.85 0.844-2.77 1.286-0.264 0.128-0.53 0.254-0.798 0.384-0.718 0.35-1.432 0.722-2.14 1.088-0.476 0.25-0.958 0.488-1.428 0.748-0.868 0.464-1.718 0.948-2.566 1.44-0.288 0.162-0.578 0.316-0.868 0.482-1.126 0.664-2.24 1.352-3.342 2.048-0.304 0.194-0.602 0.4-0.902 0.6-0.798 0.516-1.594 1.040-2.376 1.582-0.26 0.172-0.512 0.364-0.766 0.538-0.756 0.534-1.504 1.076-2.248 1.624-0.336 0.248-0.668 0.506-0.996 0.754-0.68 0.522-1.358 1.044-2.028 1.586-0.302 0.24-0.606 0.482-0.904 0.724-0.852 0.702-1.694 1.404-2.526 2.126-0.086 0.078-0.182 0.152-0.276 0.232-0.898 0.792-1.784 1.602-2.656 2.416-0.254 0.242-0.5 0.476-0.748 0.72-0.648 0.614-1.284 1.234-1.908 1.87-0.25 0.25-0.502 0.498-0.748 0.746-0.796 0.816-1.576 1.64-2.342 2.478-0.038 0.042-0.078 0.078-0.116 0.124-0.81 0.884-1.6 1.79-2.376 2.704-0.21 0.25-0.414 0.492-0.622 0.738-0.578 0.696-1.15 1.4-1.708 2.114-0.21 0.254-0.42 0.518-0.628 0.78-0.672 0.874-1.33 1.742-1.974 2.628-17.806 24.288-24.204 57.788-9.972 85.298z" />
<glyph unicode="&#xe930;" d="M67.080 497.44c-11.69-16.822-11.054-39.338-1.936-57.128 1.53-2.982 3.248-5.876 5.17-8.63 1.75-2.51 3.692-5.496 6.016-7.512 0.844-0.928 1.724-1.834 2.624-2.722 0.228-0.234 0.46-0.456 0.692-0.686 0.872-0.844 1.76-1.678 2.678-2.486 0.038-0.032 0.072-0.068 0.11-0.094 0.010-0.012 0.020-0.016 0.026-0.028 1.016-0.888 2.064-1.746 3.13-2.588 0.236-0.18 0.47-0.37 0.71-0.554 1.068-0.818 2.156-1.624 3.274-2.39 0.034-0.024 0.062-0.046 0.094-0.074 0.492-0.338 0.996-0.656 1.494-0.982 0.24-0.156 0.468-0.322 0.708-0.468 0.796-0.51 1.604-1.008 2.426-1.486 0.116-0.072 0.23-0.13 0.342-0.198 0.708-0.408 1.426-0.81 2.146-1.2 0.25-0.142 0.506-0.266 0.762-0.398 0.498-0.26 0.994-0.524 1.5-0.778 0.074-0.036 0.152-0.070 0.226-0.102 1.030-0.508 2.070-0.996 3.13-1.458 0.226-0.1 0.46-0.19 0.692-0.286 0.846-0.36 1.704-0.71 2.564-1.042 0.366-0.138 0.734-0.27 1.1-0.404 0.78-0.29 1.566-0.554 2.356-0.82 0.358-0.114 0.708-0.23 1.066-0.34 1.124-0.348 2.234-0.79 3.406-0.984 60.352-10 74.288 36.468 74.288 36.468-12.562-18.086-36.884-26.72-62.84-19.982-1.152 0.302-2.288 0.632-3.416 0.988-0.346 0.106-0.686 0.218-1.028 0.332-0.802 0.26-1.6 0.538-2.392 0.824-0.362 0.13-0.724 0.264-1.080 0.4-0.868 0.334-1.724 0.678-2.574 1.040-0.232 0.1-0.466 0.188-0.694 0.292-1.066 0.462-2.114 0.954-3.15 1.46-0.532 0.262-1.054 0.538-1.578 0.804-0.302 0.158-0.608 0.314-0.912 0.47-0.672 0.366-1.34 0.742-2 1.126-0.156 0.090-0.318 0.174-0.476 0.27-0.818 0.478-1.624 0.97-2.42 1.476-0.246 0.158-0.482 0.328-0.728 0.488-0.526 0.342-1.052 0.688-1.568 1.038-1.112 0.766-2.196 1.57-3.262 2.386-0.246 0.194-0.494 0.382-0.734 0.576-11.362 8.97-20.366 21.23-24.648 35.128-4.488 14.416-3.522 30.598 4.252 43.73z" />
<glyph unicode="&#xe931;" d="M109.278 512.064c-6.89-10.14-7.568-22.736-2.786-33.936 5.042-11.888 15.374-21.214 27.434-25.634 0.498-0.186 0.994-0.35 1.498-0.522 0.22-0.068 0.438-0.142 0.66-0.208 0.71-0.224 1.416-0.484 2.15-0.622 33.324-6.44 42.364 17.102 44.77 20.566-7.918-11.4-21.224-14.136-37.55-10.174-1.29 0.316-2.708 0.78-3.95 1.22-1.594 0.568-3.164 1.216-4.692 1.948-2.898 1.394-5.662 3.084-8.224 5.018-14.608 11.084-23.686 32.232-14.152 49.454z" />
</font>
</defs>
</svg>
